<?xml version="1.0" standalone="no"?>
<!DOCTYPE svg PUBLIC "-//W3C//DTD SVG 20010904//EN"
 "http://www.w3.org/TR/2001/REC-SVG-20010904/DTD/svg10.dtd">
<svg version="1.0" xmlns="http://www.w3.org/2000/svg"
 width="340.000000pt" height="340.000000pt" viewBox="0 0 340.000000 340.000000"
 preserveAspectRatio="xMidYMid meet">
<metadata>
Created by potrace 1.14, written by Peter Selinger 2001-2017
</metadata>
<g transform="translate(0.000000,340.000000) scale(0.100000,-0.100000)"
fill="#000000" stroke="none">
<path d="M350 1708 c0 -459 2 -837 5 -840 3 -2 118 28 257 69 139 40 259 71
266 68 6 -2 12 -1 12 4 0 5 10 11 23 14 12 2 134 37 270 76 136 40 252 69 256
66 5 -3 11 -1 13 4 5 13 1657 483 1670 475 6 -4 8 -3 5 3 -4 7 22 18 69 28 41
10 77 21 79 25 2 3 -137 46 -308 94 -172 49 -361 103 -422 121 -60 18 -149 43
-197 56 -48 13 -84 27 -81 33 3 5 1 6 -5 2 -10 -6 -217 48 -367 95 -42 13
-553 159 -590 169 -51 13 -427 120 -490 140 -33 10 -121 35 -195 55 -74 21
-146 42 -160 48 -14 5 -32 11 -40 12 -8 1 -27 6 -42 10 l-28 7 0 -834z m111
738 c24 -8 98 -29 164 -47 66 -18 122 -35 125 -39 3 -3 16 -6 30 -8 25 -2 150
-36 560 -152 243 -68 385 -107 423 -116 15 -3 27 -10 27 -16 0 -5 5 -6 10 -3
6 4 50 -5 98 -19 105 -30 325 -91 522 -146 399 -110 714 -199 707 -199 -11 -1
-120 -31 -352 -96 -201 -56 -248 -70 -515 -143 -80 -22 -300 -83 -488 -136
-189 -52 -353 -97 -365 -99 -12 -1 -27 -5 -32 -9 -6 -4 -65 -21 -130 -38 -66
-18 -172 -47 -235 -65 -63 -18 -160 -45 -215 -60 -55 -15 -121 -34 -147 -42
-26 -8 -52 -12 -58 -8 -5 3 -10 2 -10 -3 0 -7 -149 -53 -172 -52 -11 0 -10
1510 0 1510 5 0 28 -6 53 -14z"/>
<path d="M475 2370 c11 -12 36 -39 55 -60 75 -80 148 -159 210 -229 36 -41 81
-90 100 -110 19 -20 62 -68 95 -106 33 -37 70 -78 83 -89 12 -11 20 -26 18
-33 -3 -7 1 -10 8 -7 7 3 20 -5 28 -18 8 -13 41 -49 71 -82 31 -32 54 -63 50
-69 -3 -5 -2 -7 4 -4 13 8 56 -37 46 -48 -5 -4 -3 -5 4 -1 14 8 45 -33 36 -47
-3 -6 -1 -7 5 -4 5 4 47 -33 91 -82 69 -75 85 -87 106 -83 14 2 28 9 31 14 3
5 -25 42 -62 82 -38 40 -97 102 -131 139 l-63 67 0 252 0 252 30 -29 c17 -16
28 -35 26 -42 -3 -7 -1 -12 3 -10 14 4 92 -83 85 -95 -4 -7 -2 -8 4 -4 14 8
73 -54 67 -71 -2 -7 2 -10 9 -7 13 5 53 -44 48 -59 -1 -5 2 -6 7 -3 12 8 102
-95 94 -107 -3 -6 -2 -7 4 -4 11 7 66 -46 58 -56 -3 -4 -3 -5 1 -3 11 8 106
-103 98 -115 -4 -7 -3 -9 3 -6 5 3 28 -13 50 -37 33 -35 46 -43 67 -39 34 7
33 23 -4 58 -16 15 -27 33 -23 38 3 6 1 7 -5 3 -5 -3 -33 20 -61 51 l-51 58 0
168 c0 92 4 167 8 167 15 0 83 -77 80 -91 -2 -8 2 -13 8 -12 17 3 235 -227
227 -240 -3 -5 -2 -7 4 -4 12 8 107 -89 99 -101 -9 -15 40 -5 179 34 72 20
137 37 145 38 8 1 38 10 65 18 28 9 95 28 150 43 128 34 197 56 193 61 -2 2
-47 15 -98 29 -137 38 -218 61 -500 139 -25 7 -90 25 -145 40 -55 15 -107 29
-115 33 -8 3 -22 7 -30 8 -8 1 -49 12 -90 24 -41 12 -190 53 -330 92 -140 38
-327 90 -415 115 -88 25 -189 53 -225 63 -36 10 -110 31 -165 46 -55 15 -147
41 -205 57 -58 17 -116 33 -130 36 l-25 5 20 -23z"/>
<path d="M1970 1726 c0 -2 8 -10 18 -17 15 -13 16 -12 3 4 -13 16 -21 21 -21
13z"/>
<path d="M1170 1551 c0 -7 -5 -9 -12 -5 -7 5 -8 3 -3 -5 5 -9 10 -10 18 -2 6
6 8 14 4 18 -4 3 -7 1 -7 -6z"/>
</g>
</svg>
