<?xml version="1.0" standalone="no"?>
<!DOCTYPE svg PUBLIC "-//W3C//DTD SVG 20010904//EN"
 "http://www.w3.org/TR/2001/REC-SVG-20010904/DTD/svg10.dtd">
<svg version="1.0" xmlns="http://www.w3.org/2000/svg"
 width="560.000000pt" height="560.000000pt" viewBox="0 0 560.000000 560.000000"
 preserveAspectRatio="xMidYMid meet">
<metadata>
Created by potrace 1.11, written by Peter Selinger 2001-2013
</metadata>
<g transform="translate(0.000000,560.000000) scale(0.100000,-0.100000)"
fill="#000000" stroke="none">
<path d="M2605 5250 c-11 -5 -42 -9 -69 -9 -27 -1 -63 -5 -80 -10 -17 -5 -51
-15 -76 -22 -87 -23 -115 -32 -132 -40 -10 -5 -22 -9 -28 -9 -16 0 -158 -69
-165 -80 -3 -6 -25 -19 -49 -30 -23 -10 -49 -26 -56 -35 -7 -8 -16 -15 -21
-15 -32 0 -261 -212 -320 -297 -17 -24 -34 -43 -39 -43 -6 0 -10 -5 -10 -11 0
-6 -8 -23 -19 -37 -27 -39 -101 -180 -101 -193 0 -19 -33 -39 -46 -28 -7 6
-21 4 -38 -4 -37 -20 -156 -133 -156 -149 0 -8 -18 -31 -40 -52 -22 -21 -40
-46 -40 -56 0 -11 -13 -27 -30 -37 -24 -14 -30 -24 -30 -51 0 -18 -6 -39 -13
-45 -20 -19 -55 -37 -71 -37 -8 0 -16 -4 -18 -8 -4 -12 -95 -72 -107 -72 -6 0
-11 -4 -11 -8 0 -4 -14 -16 -32 -27 -42 -25 -212 -196 -264 -265 -85 -115
-104 -144 -104 -162 0 -10 -4 -18 -8 -18 -8 0 -43 -64 -63 -117 -5 -13 -13
-33 -18 -45 -5 -13 -15 -41 -22 -63 -6 -22 -15 -48 -20 -57 -5 -10 -9 -33 -9
-51 0 -18 -4 -37 -9 -42 -14 -15 -22 -104 -27 -299 -3 -117 -1 -183 6 -190 5
-5 10 -31 10 -57 0 -26 5 -51 10 -54 6 -3 10 -18 10 -32 0 -27 16 -84 31 -115
5 -10 9 -25 9 -33 0 -8 4 -23 9 -33 37 -74 51 -106 51 -118 0 -8 4 -14 9 -14
5 0 14 -15 22 -32 26 -65 133 -213 214 -298 86 -88 205 -190 224 -190 6 0 11
-4 11 -10 0 -5 6 -10 13 -10 7 0 22 -8 33 -19 22 -20 183 -101 202 -101 7 0
12 -12 12 -27 0 -26 50 -93 68 -93 4 0 15 -13 24 -28 9 -15 28 -34 42 -42 14
-7 26 -20 26 -27 0 -16 44 -63 59 -63 16 0 52 -33 61 -56 5 -12 24 -25 47 -32
32 -10 44 -20 58 -52 10 -22 22 -40 27 -40 4 0 8 -9 8 -19 0 -11 5 -23 10 -26
6 -3 29 -34 52 -68 23 -33 60 -80 82 -102 23 -23 55 -57 71 -76 65 -72 276
-229 309 -229 8 0 16 -3 18 -8 4 -9 119 -65 168 -82 19 -7 44 -16 55 -20 11
-4 40 -13 65 -20 25 -7 54 -16 65 -21 37 -15 109 -21 320 -26 129 -2 217 0
230 6 11 5 38 12 60 15 79 10 115 18 121 27 3 5 16 9 29 9 14 0 40 9 60 20 20
11 47 20 60 20 14 0 25 3 25 8 0 8 49 32 67 32 7 0 13 5 13 10 0 6 6 10 13 10
20 0 73 28 87 45 7 8 19 15 26 15 8 0 14 3 14 8 0 4 16 16 35 26 19 11 35 22
35 26 0 4 19 20 43 35 42 29 227 213 227 228 0 4 13 22 30 40 16 18 30 38 30
45 0 6 5 12 10 12 6 0 10 5 10 10 0 6 16 34 35 63 19 28 35 55 35 60 0 15 40
96 50 102 6 4 17 2 24 -4 21 -17 92 25 111 66 9 18 29 40 45 48 16 8 35 25 41
38 16 30 45 57 63 57 8 0 20 14 28 30 7 17 27 39 45 50 22 13 37 33 49 68 13
37 25 52 48 62 40 17 140 84 202 135 88 73 232 225 277 293 38 58 56 90 115
197 21 39 49 111 62 158 7 26 17 50 21 53 5 3 9 16 9 29 0 13 5 27 10 30 6 3
10 25 10 49 0 23 3 46 8 50 15 16 29 250 20 346 -17 174 -66 361 -132 503 -20
42 -36 81 -36 87 0 5 -9 14 -20 20 -11 6 -20 18 -20 26 0 15 -17 40 -72 108
-16 19 -28 38 -28 43 0 22 -281 283 -306 283 -3 0 -32 18 -64 40 -32 22 -61
40 -64 40 -10 0 -111 50 -127 63 -9 7 -20 27 -23 44 -4 18 -22 45 -41 62 -18
16 -57 55 -86 87 -29 33 -58 61 -64 64 -22 10 -65 48 -65 57 0 23 -38 43 -83
43 -43 0 -48 3 -62 33 -8 17 -33 61 -55 96 -22 34 -40 66 -40 70 0 3 -24 31
-53 61 -28 30 -52 57 -53 60 0 6 -92 100 -97 100 -3 0 -26 20 -53 46 -27 25
-60 51 -74 58 -45 22 -75 41 -95 58 -27 23 -214 118 -232 118 -7 0 -21 4 -31
9 -94 47 -286 81 -482 86 -69 2 -134 -1 -145 -5z m75 -40 c0 -6 23 -40 50 -75
28 -35 50 -67 50 -70 0 -3 -40 -5 -89 -5 -68 0 -98 5 -128 19 -21 11 -45 22
-53 25 -29 11 -94 52 -97 62 -4 13 45 34 81 35 17 0 40 4 51 9 29 12 135 12
135 0z m238 -15 c12 -14 22 -28 22 -33 0 -4 18 -31 40 -60 22 -29 40 -55 40
-57 0 -9 -91 -5 -135 6 -29 7 -59 26 -89 56 -37 36 -76 93 -76 110 0 1 40 3
88 3 82 0 90 -2 110 -25z m147 -5 c3 -5 19 -10 35 -10 16 0 32 -4 35 -10 3 -5
18 -10 32 -10 36 0 73 -37 73 -71 0 -15 5 -31 10 -34 6 -3 10 -17 10 -30 0
-13 4 -25 8 -27 5 -1 12 -15 16 -30 7 -30 -2 -34 -32 -19 -9 5 -30 14 -47 21
-16 7 -38 16 -47 21 -10 5 -26 9 -37 9 -30 0 -157 160 -147 185 6 17 81 21 91
5z m-654 -58 c135 -72 157 -92 101 -92 -17 0 -32 -5 -34 -11 -6 -17 -223 -17
-265 -1 -18 6 -46 17 -63 23 -16 6 -30 14 -30 18 0 3 22 16 48 27 26 12 67 31
92 42 61 28 88 27 151 -6z m927 -44 c2 -4 10 -8 17 -8 19 0 98 -42 112 -60 7
-8 13 -29 13 -47 0 -17 5 -35 10 -38 10 -6 14 -125 4 -125 -3 0 -20 11 -38 25
-18 14 -37 25 -42 25 -35 0 -134 162 -134 220 0 28 2 30 28 24 15 -4 29 -11
30 -16z m-1220 -57 c36 -18 90 -31 130 -31 23 0 42 -2 42 -4 0 -18 -15 -36
-31 -36 -10 0 -19 -4 -19 -10 0 -5 -6 -10 -14 -10 -8 0 -41 -13 -73 -29 -103
-51 -115 -53 -179 -42 -32 6 -73 11 -91 11 -18 0 -33 4 -33 9 0 11 93 91 106
91 5 1 27 14 49 30 41 30 81 37 113 21z m718 0 c5 -5 36 -12 69 -15 96 -8 149
-17 160 -27 5 -5 19 -9 32 -9 13 0 31 -4 41 -9 41 -22 113 -51 126 -51 8 0 16
-3 18 -7 4 -9 106 -73 117 -73 4 0 27 -18 51 -40 24 -22 48 -40 53 -40 11 0
47 -39 47 -52 0 -11 -27 -10 -35 2 -3 6 -17 10 -30 10 -13 0 -26 4 -29 9 -3 4
-20 12 -38 16 -64 14 -104 24 -143 35 -39 12 -80 19 -220 42 -96 15 -420 16
-530 1 -103 -15 -172 -27 -230 -42 -60 -15 -117 -29 -148 -37 -15 -3 -30 -10
-33 -15 -3 -5 -16 -9 -29 -9 -13 0 -27 -4 -30 -10 -3 -5 -17 -10 -31 -10 -13
0 -24 -4 -24 -10 0 -5 -10 -10 -23 -10 -13 0 -27 -4 -32 -9 -15 -13 -65 -23
-65 -12 0 5 12 19 28 31 15 12 47 40 72 63 49 45 117 94 165 117 17 8 32 17
35 20 12 12 51 30 65 30 8 0 15 5 15 10 0 6 10 10 23 10 13 0 27 4 33 8 5 5
29 14 54 21 25 7 53 17 62 22 10 5 31 9 47 9 16 0 40 4 53 9 13 5 69 12 123
16 55 3 102 8 104 11 8 8 67 4 77 -5z m748 -83 c6 -4 31 -26 56 -48 25 -22 48
-40 53 -40 4 0 7 -10 7 -23 0 -13 4 -27 9 -32 5 -6 12 -32 15 -60 3 -27 8 -67
12 -87 7 -43 8 -43 -37 -24 -29 12 -132 114 -150 149 -11 22 -32 166 -26 182
7 15 20 12 61 -17z m-1651 -104 c42 -4 77 -9 77 -12 0 -6 -67 -72 -74 -72 -2
0 -25 -20 -51 -45 -61 -60 -103 -77 -185 -73 -84 4 -87 18 -18 94 109 121 116
127 146 120 15 -3 62 -9 105 -12z m1027 -44 c177 -18 210 -22 216 -31 3 -5 25
-9 49 -9 24 0 47 -4 50 -10 3 -5 21 -10 40 -10 19 0 37 -4 40 -10 3 -5 17 -10
30 -10 13 0 27 -4 30 -10 3 -5 17 -10 30 -10 13 0 27 -4 30 -10 3 -5 19 -10
36 -10 16 0 29 -4 29 -10 0 -5 6 -10 14 -10 8 0 34 -10 58 -21 23 -12 52 -25
63 -30 62 -24 85 -35 85 -40 0 -4 14 -12 30 -19 17 -7 30 -16 30 -21 0 -5 9
-9 20 -9 11 0 20 -4 20 -8 0 -5 12 -15 28 -23 15 -8 30 -18 34 -23 4 -6 13 -4
22 4 14 11 16 10 10 -4 -4 -10 0 -18 10 -22 9 -3 16 -17 16 -31 0 -18 -30 -55
-112 -138 -62 -63 -151 -155 -198 -205 -197 -212 -188 -206 -238 -172 -40 27
-151 78 -202 93 -25 7 -49 16 -55 20 -5 3 -23 9 -40 12 -16 3 -52 11 -80 17
-98 21 -272 30 -378 20 -167 -16 -201 -21 -222 -29 -11 -5 -53 -19 -93 -32
-40 -12 -75 -26 -78 -31 -3 -4 -13 -8 -24 -8 -10 0 -44 -13 -75 -30 -31 -16
-63 -30 -71 -30 -8 0 -14 -4 -14 -10 0 -5 -7 -10 -15 -10 -8 0 -24 -9 -35 -20
-11 -11 -28 -20 -39 -20 -15 0 -116 89 -278 244 -12 12 -73 68 -136 126 -63
58 -116 113 -116 123 -1 10 20 32 49 53 28 20 50 39 50 42 0 4 10 12 23 18 12
6 58 33 102 60 108 67 329 174 359 174 8 0 18 5 21 10 3 6 17 10 30 10 13 0
27 5 30 10 3 6 19 10 35 10 16 0 32 5 35 10 3 6 19 10 35 10 16 0 31 4 34 9 3
4 27 11 53 15 27 3 75 11 108 17 143 25 364 34 515 19z m846 -57 c18 -21 34
-42 34 -47 0 -5 8 -16 18 -25 10 -9 32 -38 50 -66 17 -27 36 -56 42 -63 6 -7
10 -22 8 -33 -3 -19 -4 -19 -40 6 -20 14 -42 25 -48 25 -40 0 -111 93 -94 122
4 5 2 13 -3 17 -15 9 -25 101 -12 101 6 0 26 -17 45 -37z m-2026 -137 c0 -14
-71 -66 -90 -66 -5 0 -10 -4 -10 -10 0 -5 -5 -10 -10 -10 -6 0 -50 -27 -98
-59 -48 -33 -89 -55 -91 -49 -8 24 89 185 119 196 11 4 55 8 99 9 62 2 81 -1
81 -11z m2320 -200 c0 -8 3 -21 6 -29 3 -8 -6 -26 -20 -40 -21 -22 -32 -25
-63 -20 -51 8 -60 18 -33 40 13 10 34 28 49 40 30 25 61 30 61 9z m-2694 -83
c7 -10 14 -28 14 -40 0 -12 6 -23 13 -26 9 -3 9 -7 -2 -20 -17 -21 -31 -22
-31 -2 0 9 -11 21 -25 27 -26 12 -42 48 -30 67 10 17 46 13 61 -6z m2794 -8
c16 -43 -5 -65 -60 -63 -8 0 -23 -3 -32 -7 -33 -13 -31 21 4 59 39 43 74 48
88 11z m-185 -35 c9 -14 -11 -46 -44 -70 -24 -16 -38 -19 -70 -14 -23 4 -41
11 -41 16 0 16 59 66 83 71 41 8 66 7 72 -3z m-2720 -54 c0 -40 -20 -44 -33
-7 -11 32 -6 43 18 39 9 -2 15 -14 15 -32z m262 -48 c29 -58 37 -98 21 -98 -7
0 -32 17 -55 38 -36 32 -41 43 -43 82 -3 64 -3 63 28 41 16 -11 38 -39 49 -63z
m2736 60 c16 -24 -10 -68 -50 -85 -40 -16 -93 -17 -93 -1 0 19 100 110 117
106 9 -2 21 -11 26 -20z m-2880 -61 c44 -40 47 -45 47 -94 0 -29 -4 -54 -8
-57 -5 -3 -32 18 -60 47 -35 36 -51 61 -53 82 -6 79 7 83 74 22z m2707 26 c0
-9 -14 -32 -32 -50 -27 -28 -39 -33 -80 -33 -54 0 -60 11 -25 50 34 39 137 64
137 33z m-2900 -83 c0 -33 -4 -60 -9 -60 -10 0 -51 53 -51 64 0 16 34 56 46
56 10 0 14 -16 14 -60z m3150 36 c7 -14 10 -31 7 -39 -13 -34 -137 -65 -137
-34 0 7 14 21 30 30 17 10 30 23 30 29 0 13 30 37 46 38 6 0 16 -11 24 -24z
m-470 -10 c0 -8 -20 -34 -45 -57 -39 -38 -51 -43 -83 -40 -20 1 -41 7 -46 12
-13 12 52 79 75 79 10 0 21 5 24 10 10 16 75 12 75 -4z m300 -45 c0 -11 -9
-23 -20 -26 -11 -3 -20 -13 -20 -21 0 -11 -15 -14 -60 -14 -33 0 -60 4 -60 8
0 18 51 52 78 52 15 0 34 5 42 10 24 15 40 12 40 -9z m-2891 -7 c42 -25 71
-77 71 -129 0 -39 -3 -45 -21 -45 -12 0 -23 8 -26 20 -3 11 -11 20 -19 20 -7
0 -24 15 -38 33 -23 30 -24 36 -14 75 6 23 13 42 15 42 3 0 17 -7 32 -16z
m366 -10 c14 -15 25 -37 25 -50 0 -12 5 -26 10 -29 16 -10 12 -45 -5 -45 -34
0 -65 43 -70 98 -5 59 4 65 40 26z m2345 4 c0 -7 -20 -34 -45 -60 -43 -46 -47
-48 -100 -48 -30 0 -55 5 -55 10 0 6 5 10 10 10 6 0 10 6 10 13 1 22 49 67 72
67 13 0 30 5 38 10 22 14 70 12 70 -2z m-2880 -37 c0 -13 -26 -32 -33 -24 -14
13 -6 33 13 33 11 0 20 -4 20 -9z m431 -15 c15 -13 32 -32 38 -44 13 -24 15
-118 3 -126 -5 -3 -28 15 -52 39 -38 39 -43 49 -46 99 -4 48 -2 56 13 56 10 0
30 -11 44 -24z m2904 14 c3 -5 15 -10 26 -10 10 0 19 -4 19 -10 0 -5 7 -10 15
-10 9 0 27 -10 41 -23 22 -21 25 -31 22 -78 -4 -70 -23 -74 -63 -12 -16 26
-32 52 -34 57 -2 6 -11 18 -20 26 -16 15 -41 55 -41 65 0 9 29 5 35 -5z
m-1465 -29 c30 -7 72 -15 93 -18 20 -3 40 -9 43 -14 3 -5 16 -9 30 -9 13 0 24
-4 24 -10 0 -5 9 -10 20 -10 11 0 28 -4 38 -9 9 -5 53 -26 97 -48 71 -34 80
-41 83 -68 4 -44 29 -91 66 -128 18 -18 35 -40 39 -50 3 -9 14 -17 24 -17 17
0 113 -79 113 -93 0 -10 -38 -9 -74 3 -17 5 -52 15 -78 22 -27 7 -48 16 -48
20 0 4 -8 8 -17 8 -9 0 -35 9 -57 19 -51 24 -98 31 -255 37 -77 4 -132 2 -145
-5 -12 -6 -52 -12 -91 -15 -38 -2 -92 -9 -120 -15 -77 -17 -271 -34 -363 -32
-78 2 -152 21 -152 39 0 5 14 21 30 37 24 23 30 37 30 71 0 36 -5 45 -36 69
-31 23 -50 29 -110 33 -41 3 -74 7 -74 9 0 15 100 73 126 73 8 0 14 4 14 8 0
5 23 15 51 22 27 8 52 18 55 22 3 4 18 8 33 8 15 0 31 3 35 7 10 11 96 32 131
33 17 0 37 5 45 10 20 14 327 6 400 -9z m1270 3 c0 -30 -51 -64 -97 -64 -47 0
-56 15 -25 42 39 35 122 49 122 22z m152 -31 c18 -27 42 -58 55 -70 12 -13 29
-38 38 -57 9 -18 25 -43 35 -54 11 -12 20 -28 20 -37 0 -8 5 -15 10 -15 6 0
10 -9 10 -20 0 -11 5 -20 10 -20 6 0 10 -9 10 -19 0 -11 3 -21 8 -23 10 -4 52
-87 52 -104 0 -8 5 -14 10 -14 6 0 10 -7 10 -15 0 -8 5 -24 10 -35 6 -11 15
-29 20 -40 6 -11 10 -29 10 -40 0 -11 5 -29 10 -40 6 -11 15 -29 20 -40 6 -11
10 -31 10 -44 0 -14 5 -28 10 -31 6 -3 10 -22 10 -41 0 -19 4 -34 9 -34 5 0
12 -24 15 -52 3 -29 10 -87 17 -128 20 -134 12 -600 -12 -624 -5 -6 -9 -27 -9
-47 0 -21 -4 -41 -10 -44 -5 -3 -10 -24 -10 -45 0 -21 -4 -42 -10 -45 -5 -3
-10 -19 -10 -35 0 -16 -4 -32 -10 -35 -5 -3 -10 -15 -10 -26 0 -10 -5 -29 -12
-42 -24 -46 -28 -57 -28 -71 0 -12 -14 -44 -51 -118 -5 -10 -9 -25 -9 -33 0
-8 -4 -15 -10 -15 -5 0 -10 -9 -10 -20 0 -11 -4 -20 -9 -20 -5 0 -11 -8 -14
-17 -6 -18 -46 -88 -76 -133 -9 -14 -23 -37 -30 -52 -8 -15 -20 -29 -29 -33
-15 -5 -75 43 -122 99 -13 16 -42 42 -64 58 -22 16 -77 64 -121 107 -45 43
-113 106 -153 140 -89 77 -96 89 -77 134 8 20 19 38 25 42 5 3 10 16 10 29 0
12 4 26 8 32 15 16 70 166 82 224 7 30 16 68 21 84 5 16 9 47 9 70 0 23 4 57
9 76 10 46 -5 266 -25 355 -19 87 -58 203 -91 275 -14 30 -32 69 -39 85 -16
34 -31 59 -56 94 -37 50 -28 69 92 185 14 13 48 50 75 82 114 131 290 303 312
303 15 1 32 -13 55 -46z m-3194 -13 c27 -26 42 -49 42 -66 0 -13 6 -33 12 -44
8 -13 9 -23 2 -30 -6 -6 -28 8 -66 43 -52 48 -55 55 -52 92 4 49 2 45 12 45 4
0 27 -18 50 -40z m2522 25 c0 -9 -20 -36 -44 -60 -39 -40 -49 -45 -90 -45 -53
0 -58 11 -23 51 48 57 157 93 157 54z m340 -11 c0 -19 -70 -72 -100 -77 -19
-3 -45 -8 -57 -12 -54 -17 0 61 57 84 28 11 100 15 100 5z m-2292 -31 c16 -16
35 -38 41 -50 13 -26 15 -93 2 -93 -5 0 -28 20 -52 45 -40 42 -53 78 -41 113
6 18 16 15 50 -15z m-342 -15 c19 -18 34 -41 34 -50 0 -9 5 -20 10 -23 12 -7
14 -95 2 -95 -4 0 -32 24 -61 54 -37 37 -51 58 -45 68 5 7 7 23 5 35 -2 23 5
43 16 43 3 0 21 -15 39 -32z m-427 -10 c-1 -29 -37 -72 -64 -81 -73 -21 -95
-25 -101 -15 -4 6 -1 15 7 19 146 93 160 99 158 77z m111 -30 c21 -18 53 -46
72 -63 35 -30 250 -230 314 -293 19 -18 34 -37 34 -42 0 -6 6 -10 13 -10 15 0
57 -45 57 -60 0 -6 -9 -20 -20 -32 -11 -12 -20 -28 -20 -35 0 -7 -9 -28 -20
-48 -11 -20 -20 -42 -20 -50 0 -8 -4 -15 -10 -15 -5 0 -10 -9 -10 -19 0 -11
-4 -23 -10 -26 -5 -3 -10 -19 -10 -35 0 -16 -4 -32 -10 -35 -5 -3 -10 -19 -10
-35 0 -16 -4 -31 -9 -34 -9 -6 -19 -56 -27 -146 -3 -30 -10 -65 -16 -76 -6
-14 -8 -53 -4 -105 4 -46 9 -115 12 -154 3 -38 10 -74 15 -80 5 -5 9 -28 9
-51 0 -24 5 -46 10 -49 6 -3 10 -19 10 -35 0 -16 5 -32 10 -35 6 -3 10 -19 10
-36 0 -16 5 -29 10 -29 6 0 10 -7 10 -15 0 -15 4 -25 28 -72 7 -13 12 -30 12
-38 0 -8 3 -15 8 -15 4 0 15 -17 25 -37 9 -21 26 -54 37 -73 11 -19 20 -42 20
-52 0 -9 -56 -75 -125 -145 -69 -70 -125 -129 -125 -130 0 -5 -71 -81 -153
-165 -47 -49 -84 -78 -94 -76 -10 2 -32 23 -51 48 -18 25 -40 53 -48 63 -8 9
-14 19 -14 22 0 3 -15 27 -32 53 -48 70 -53 78 -102 177 -72 144 -126 282
-126 322 0 12 -4 25 -10 28 -5 3 -10 21 -10 39 0 17 -5 37 -10 42 -6 6 -13 26
-15 45 -7 56 -21 124 -27 135 -10 15 -22 247 -19 354 5 176 26 337 60 460 12
41 23 84 26 95 2 11 9 29 14 40 5 11 19 47 31 80 36 98 53 139 65 155 7 8 17
30 23 48 6 18 20 46 32 61 11 16 20 32 20 36 0 3 14 26 30 50 17 24 30 46 30
50 0 11 55 75 64 75 5 0 25 -15 46 -32z m565 -12 c33 -33 45 -53 45 -75 0 -16
5 -33 10 -36 6 -3 10 -15 10 -26 0 -30 -30 -22 -77 20 -42 38 -43 41 -43 100
0 33 2 61 5 61 3 0 25 -20 50 -44z m2165 40 c0 -2 -19 -24 -43 -49 -49 -49
-136 -82 -159 -59 -8 8 1 24 41 62 49 48 54 50 106 50 30 0 55 -2 55 -4z m310
-6 c0 -5 -17 -27 -37 -50 -34 -36 -42 -40 -85 -40 -26 0 -48 3 -48 8 0 15 71
72 90 72 10 0 22 5 25 10 8 13 55 13 55 0z m523 -19 c23 -16 53 -41 67 -55 21
-23 22 -30 12 -46 -7 -11 -12 -47 -12 -80 0 -76 -15 -84 -65 -38 -20 18 -46
38 -58 44 -21 12 -24 18 -33 97 -7 53 10 107 33 107 8 0 33 -13 56 -29z
m-3332 -61 c41 -39 59 -74 59 -117 0 -41 -4 -40 -58 9 -29 26 -42 47 -47 77
-6 36 -2 61 11 61 2 0 18 -13 35 -30z m2236 13 c4 -9 1 -19 -5 -21 -7 -2 -12
-8 -12 -14 0 -13 -56 -68 -69 -68 -6 0 -18 11 -27 25 -15 23 -15 27 0 50 11
17 26 25 46 25 16 0 32 5 35 10 9 15 25 12 32 -7z m363 9 c0 -14 -89 -95 -107
-97 -10 -1 -30 -5 -45 -9 -41 -12 -50 1 -25 31 58 71 70 79 125 81 28 1 52 -2
52 -6z m-2363 -62 c13 -14 23 -38 23 -53 0 -16 5 -37 11 -48 8 -15 7 -24 -2
-35 -10 -12 -19 -8 -56 31 l-44 45 6 55 c8 61 12 61 62 5z m333 16 c17 -21 9
-60 -14 -64 -27 -6 -39 12 -31 47 7 33 25 40 45 17z m-1006 -25 c7 -11 -4 -40
-43 -106 -33 -57 -48 -62 -183 -72 -72 -5 -78 -4 -78 14 0 11 32 49 75 89 75
68 76 69 143 75 37 3 70 6 74 7 4 1 9 -2 12 -7z m1304 0 c12 0 22 -6 22 -12 0
-6 7 -26 16 -45 14 -28 14 -35 2 -46 -20 -19 -101 -58 -120 -58 -22 0 -33 -19
-19 -33 7 -7 11 -85 11 -238 0 -125 4 -230 9 -233 5 -3 9 -88 10 -188 1 -100
4 -185 7 -190 3 -4 7 -130 10 -280 3 -150 9 -320 14 -377 11 -111 14 -504 5
-513 -7 -7 -105 41 -105 50 0 4 -2 81 -5 172 -2 91 -7 266 -10 390 -3 124 -8
279 -10 345 -4 117 -8 273 -21 809 l-6 259 -50 48 c-45 44 -48 50 -37 71 19
36 60 67 93 71 27 3 115 2 184 -2z m1776 -55 c-22 -25 -43 -46 -49 -47 -46 -5
-79 -2 -82 8 -2 6 13 30 34 52 30 31 46 41 78 43 22 2 44 0 49 -4 5 -4 -9 -27
-30 -52z m-2104 -67 c0 -12 -7 -19 -20 -19 -11 0 -20 -4 -20 -10 0 -19 -29
-10 -48 15 -16 20 -19 37 -17 78 2 28 4 54 4 56 3 12 101 -105 101 -120z
m1813 115 c9 -10 -94 -114 -113 -114 -39 0 -54 54 -22 83 33 30 117 49 135 31z
m1160 -38 c64 -67 78 -96 71 -150 -4 -26 -11 -49 -15 -52 -5 -3 -9 -23 -9 -45
0 -47 -21 -53 -47 -11 -9 15 -30 41 -46 58 -25 28 -29 40 -32 105 -4 94 3 139
22 139 7 0 33 -20 56 -44z m-3364 -35 c19 -18 31 -39 31 -54 0 -14 5 -29 10
-32 12 -7 14 -55 2 -55 -23 0 -74 59 -82 95 -19 83 -11 92 39 46z m2311 12 c0
-3 -11 -21 -26 -40 -22 -29 -31 -33 -70 -33 -24 0 -44 -4 -44 -10 0 -5 9 -10
20 -10 14 0 20 -7 20 -21 0 -17 -5 -20 -37 -17 -56 5 -55 33 3 91 41 42 52 47
90 47 24 0 44 -3 44 -7z m-2079 -63 c26 -27 54 -50 63 -50 25 0 21 -57 -5 -65
-27 -9 -78 12 -106 43 -17 19 -22 35 -20 73 1 27 6 49 11 49 6 0 31 -22 57
-50z m2159 -22 c-1 -13 -39 -57 -97 -111 -24 -22 -36 -27 -57 -21 -15 4 -26
13 -26 23 0 22 69 97 101 110 35 14 79 13 79 -1z m839 -40 c28 -29 51 -56 51
-60 0 -4 11 -18 25 -32 14 -14 25 -28 25 -32 0 -4 7 -15 16 -25 19 -21 52 -77
60 -101 4 -10 10 -18 15 -18 5 0 9 -7 9 -15 0 -8 5 -25 12 -38 24 -47 28 -57
28 -72 0 -8 5 -15 10 -15 6 0 10 -13 10 -29 0 -17 5 -33 10 -36 6 -3 10 -19
10 -35 0 -16 4 -31 9 -34 32 -20 33 -511 0 -532 -5 -3 -9 -24 -9 -48 0 -23 -4
-46 -8 -51 -5 -6 -15 -29 -22 -52 -7 -24 -17 -43 -22 -43 -4 0 -8 -9 -8 -20 0
-11 -4 -20 -10 -20 -5 0 -10 -6 -10 -13 0 -18 -24 -67 -32 -67 -5 0 -8 -9 -8
-20 0 -11 -4 -20 -10 -20 -5 0 -10 -9 -10 -20 0 -11 -4 -20 -10 -20 -5 0 -10
-6 -10 -14 0 -7 -27 -42 -60 -77 -56 -60 -59 -62 -60 -37 0 15 4 29 9 32 5 3
11 18 14 33 3 16 11 46 17 68 22 76 48 184 55 228 2 15 9 53 15 84 5 31 10 82
10 112 0 31 4 72 8 91 7 30 2 192 -12 340 -5 56 -34 214 -46 256 -6 17 -10 40
-10 52 0 11 -4 23 -9 26 -4 3 -14 27 -21 53 -16 63 -28 99 -50 148 -39 86 -50
113 -50 119 0 17 24 1 69 -46z m-2753 18 c11 -11 14 -48 14 -169 0 -85 4 -167
10 -183 5 -16 12 -157 14 -314 12 -680 23 -1076 30 -1137 5 -42 5 -43 -24 -43
-17 0 -30 4 -30 8 0 5 -18 28 -40 53 -22 24 -40 47 -40 51 0 3 -22 23 -50 43
-27 20 -50 41 -50 47 0 25 -35 43 -87 43 l-54 0 -35 60 c-58 101 -75 135 -68
135 4 0 2 6 -4 13 -16 19 -72 178 -72 205 0 13 -8 49 -17 80 -28 94 -19 407
15 532 30 107 67 208 105 282 l44 83 43 3 c45 3 90 26 90 46 0 7 18 30 40 51
22 21 40 43 40 48 0 11 26 37 38 37 5 0 17 9 27 20 21 24 41 25 61 6z m-318
-55 c31 -26 65 -51 75 -54 24 -9 21 -30 -9 -58 l-26 -24 -18 23 c-10 12 -25
22 -33 22 -9 0 -28 16 -44 35 -23 27 -28 42 -25 70 2 19 9 35 14 35 5 0 35
-22 66 -49z m-878 21 c0 -12 -97 -112 -108 -112 -4 0 -27 -9 -50 -20 -22 -11
-50 -20 -61 -20 -11 0 -23 -4 -26 -10 -6 -9 -85 -15 -85 -6 0 9 84 132 104
153 19 20 32 22 124 22 56 1 102 -3 102 -7z m4229 -21 c12 -16 21 -34 21 -40
0 -6 3 -11 8 -11 25 0 47 -130 22 -138 -5 -2 -10 -14 -10 -27 0 -13 -4 -27
-10 -30 -5 -3 -10 -16 -10 -28 0 -12 -7 -30 -14 -40 -13 -16 -17 -12 -45 47
-18 35 -31 68 -30 72 1 5 -1 17 -6 27 -4 9 -4 32 -1 50 4 17 9 48 12 67 13 91
27 102 63 51z m-4219 -43 c0 -17 -24 -86 -33 -94 -4 -4 -7 -18 -7 -31 0 -12
-4 -23 -10 -23 -5 0 -10 -18 -10 -39 0 -22 -4 -43 -10 -46 -5 -3 -10 -19 -10
-34 0 -15 -4 -31 -9 -36 -5 -6 -11 -28 -15 -50 -3 -22 -10 -67 -17 -100 -15
-81 -23 -555 -9 -569 5 -5 10 -38 10 -72 0 -35 5 -66 10 -69 6 -3 10 -28 10
-55 0 -27 5 -52 10 -55 5 -3 10 -19 10 -35 0 -16 5 -32 10 -35 6 -3 10 -19 10
-36 0 -16 5 -29 10 -29 6 0 10 -11 10 -25 0 -14 4 -33 9 -43 20 -39 61 -152
61 -167 0 -3 -7 -5 -15 -5 -8 0 -15 3 -15 8 0 4 -12 21 -27 38 -60 67 -113
138 -113 152 0 4 -8 17 -17 28 -25 28 -43 61 -43 79 0 8 -4 15 -9 15 -5 0 -12
12 -16 28 -3 15 -13 41 -20 57 -18 42 -50 148 -66 223 -7 34 -16 62 -20 62 -7
0 -9 -17 -24 -145 -3 -27 -10 -59 -14 -70 -5 -11 -14 -40 -21 -65 -7 -25 -14
-51 -16 -57 -5 -20 -34 -15 -34 5 0 10 -4 22 -8 27 -9 12 -26 61 -43 132 -9
37 -9 56 -2 65 18 21 53 88 53 99 0 18 72 85 77 72 7 -19 33 -16 33 5 6 251
15 347 39 407 5 11 15 40 22 65 15 54 107 237 132 264 9 11 17 25 17 31 0 6
22 36 50 66 27 30 50 57 50 62 0 4 5 7 10 7 6 0 10 -6 10 -12z m3059 -97 c12
-16 21 -34 21 -39 0 -6 3 -12 8 -14 10 -4 72 -128 72 -144 0 -8 5 -14 10 -14
6 0 10 -9 10 -19 0 -11 5 -23 10 -26 6 -3 10 -19 10 -35 0 -16 4 -31 9 -34 5
-3 11 -23 15 -43 3 -21 11 -67 17 -103 20 -114 12 -450 -12 -475 -5 -5 -9 -26
-9 -47 0 -21 -4 -38 -10 -38 -5 0 -10 -13 -10 -29 0 -17 -4 -33 -10 -36 -5 -3
-10 -17 -10 -31 0 -13 -4 -24 -10 -24 -5 0 -10 -9 -10 -20 0 -11 -4 -20 -10
-20 -5 0 -10 -8 -11 -17 -1 -24 -51 -115 -66 -120 -21 -7 -37 87 -19 116 4 7
5 24 1 39 -8 31 -12 153 -19 712 -3 217 -9 416 -12 443 -7 55 5 61 35 18z
m-3219 -19 c0 -10 -9 -28 -20 -40 -11 -12 -20 -28 -20 -37 0 -8 -4 -15 -10
-15 -5 0 -10 -6 -10 -14 0 -24 -64 -83 -105 -96 -22 -7 -48 -16 -57 -21 -26
-13 -55 -11 -61 5 -3 8 5 36 19 63 13 26 24 53 24 58 0 17 47 65 63 65 9 0 19
5 22 10 3 6 21 10 39 10 17 0 36 4 42 9 5 5 20 11 34 14 14 2 28 5 33 6 4 0 7
-7 7 -17z m4500 -47 c0 -15 4 -25 28 -72 15 -28 16 -113 2 -113 -5 0 -10 -9
-10 -20 0 -11 -4 -20 -10 -20 -5 0 -10 -9 -10 -20 0 -11 -4 -20 -10 -20 -5 0
-10 -6 -10 -12 0 -7 -7 -22 -15 -33 -14 -18 -16 -18 -31 -3 -9 9 -19 29 -21
45 -13 77 -14 116 -4 126 6 6 11 21 11 34 0 13 4 31 9 41 5 9 15 32 21 50 13
33 50 46 50 17z m-4620 -185 c0 -30 -47 -102 -100 -154 -33 -32 -65 -66 -70
-76 -10 -19 -70 -54 -70 -41 0 17 22 127 28 136 3 5 7 20 8 33 2 12 8 36 15
52 11 24 20 29 59 33 25 3 61 9 80 15 47 13 50 14 50 2z m4703 -71 c31 -178
29 -209 -12 -209 -9 0 -27 -9 -41 -20 -14 -11 -31 -20 -37 -20 -7 0 -13 -4
-13 -10 0 -5 -7 -10 -15 -10 -13 0 -15 12 -10 74 4 58 12 88 37 133 17 32 37
71 45 86 20 38 36 29 46 -24z m-1848 16 c33 -4 64 -11 69 -16 6 -5 22 -9 37
-9 15 0 44 -7 65 -17 38 -16 79 -26 159 -42 93 -17 95 -23 95 -275 l0 -168
-27 5 c-16 2 -82 19 -148 37 -66 18 -136 36 -155 40 -19 5 -62 16 -95 25 -82
22 -260 22 -340 0 -33 -10 -82 -21 -110 -26 -181 -30 -265 -39 -310 -34 -27 4
-88 9 -135 11 -47 3 -101 9 -120 15 -19 5 -49 9 -66 9 -39 0 -56 20 -59 68 -1
20 -5 113 -10 206 l-8 169 24 -7 c105 -32 396 -42 544 -18 39 6 108 16 154 22
46 5 87 12 90 15 6 7 259 -1 346 -10z m-2919 -162 c-4 -27 -9 -75 -12 -108 -3
-33 -9 -69 -14 -80 -4 -11 -14 -41 -21 -67 -8 -27 -17 -48 -21 -48 -3 0 -10
-9 -13 -20 -3 -11 -12 -26 -19 -32 -6 -7 -20 -30 -29 -50 -10 -21 -24 -38 -32
-38 -16 0 -16 -3 -18 186 l-2 121 85 91 c47 50 89 91 94 91 4 1 5 -20 2 -46z
m4804 -181 c0 -93 -1 -100 -25 -120 -14 -12 -30 -22 -36 -22 -5 0 -29 -9 -51
-20 -63 -30 -67 -28 -62 38 10 146 15 154 96 197 76 40 78 39 78 -73z m-20
-211 c0 -28 -4 -53 -10 -56 -5 -3 -10 -23 -10 -43 -1 -45 -15 -64 -60 -81 -19
-7 -44 -17 -55 -21 -30 -13 -85 -20 -85 -12 2 18 27 102 33 108 4 4 7 19 7 34
0 29 37 68 85 89 17 7 37 17 45 22 38 21 50 11 50 -40z m-1820 -105 c0 -3 -4
-8 -10 -11 -5 -3 -10 -1 -10 4 0 6 5 11 10 11 6 0 10 -2 10 -4z m-2922 -121
c2 -17 8 -34 13 -39 5 -6 9 -18 9 -28 0 -10 4 -18 9 -18 5 0 12 -26 15 -57 4
-32 10 -78 13 -101 3 -26 1 -48 -6 -55 -6 -6 -11 -33 -11 -59 0 -41 -3 -48
-20 -48 -11 0 -20 6 -20 14 0 7 -7 20 -16 27 -9 7 -33 49 -55 93 -35 72 -37
82 -25 105 19 36 36 93 36 119 0 11 5 24 10 27 6 3 10 17 10 31 0 38 34 28 38
-11z m4682 -5 c0 -11 -4 -28 -9 -38 -5 -9 -23 -47 -40 -84 -28 -63 -33 -67
-68 -73 -21 -3 -54 -10 -73 -15 -105 -27 -105 -27 -59 60 42 78 64 101 124
129 28 13 57 27 65 31 29 17 60 11 60 -10z m-1755 -111 c5 -5 21 -9 36 -9 15
0 31 -4 34 -10 3 -5 15 -10 26 -10 10 0 28 -4 39 -10 11 -5 29 -14 40 -20 11
-5 29 -10 40 -10 11 0 28 -4 38 -9 9 -5 28 -13 42 -19 14 -5 37 -14 53 -21 37
-15 34 -33 -13 -78 -22 -21 -48 -46 -57 -56 -94 -94 -121 -125 -125 -142 -2
-12 -16 -24 -36 -31 -47 -15 -65 -46 -57 -94 6 -33 4 -41 -12 -47 -10 -3 -36
-18 -58 -32 -22 -15 -51 -32 -65 -38 -59 -25 -126 -56 -142 -64 -10 -5 -27 -9
-37 -9 -11 0 -22 -4 -25 -9 -3 -5 -20 -11 -38 -14 -18 -3 -60 -12 -93 -19 -81
-17 -442 -17 -515 0 -30 7 -70 16 -88 19 -18 3 -35 9 -38 14 -3 5 -13 9 -23 9
-51 0 -108 57 -82 83 6 6 7 17 2 26 -5 9 -11 140 -12 291 l-4 275 40 -1 c22
-1 72 -7 110 -14 160 -29 392 -23 457 11 10 5 29 9 42 9 14 0 27 4 30 9 16 25
166 40 341 34 77 -2 144 -9 150 -14z m-2819 -123 c8 -8 14 -17 14 -21 0 -10
63 -99 72 -103 4 -2 8 -19 8 -37 0 -19 5 -37 10 -40 6 -3 10 -42 10 -86 0 -98
-15 -111 -64 -56 -18 20 -47 53 -66 74 -30 33 -35 44 -34 84 1 26 7 56 13 67
6 11 11 46 11 76 0 59 3 64 26 42z m4469 4 c3 -5 1 -10 -4 -10 -6 0 -11 -9
-11 -20 0 -11 -4 -20 -10 -20 -5 0 -10 -6 -10 -13 0 -7 -9 -23 -20 -35 -11
-12 -20 -25 -20 -29 0 -4 -11 -21 -23 -37 -22 -27 -28 -29 -89 -27 -37 1 -69
-3 -73 -9 -7 -12 -95 -14 -95 -2 0 4 23 31 50 60 28 29 50 56 50 60 0 4 24 17
53 30 28 13 60 28 69 33 10 5 28 9 40 9 13 0 30 5 38 10 20 13 47 13 55 0z
m-1166 -101 c26 -26 31 -38 31 -80 0 -27 -4 -49 -8 -49 -14 0 -136 129 -129
137 4 3 13 1 19 -5 18 -18 38 -14 38 8 0 28 13 25 49 -11z m-2127 -26 c23 -20
23 -36 1 -55 -21 -18 -123 -34 -123 -19 0 16 73 90 89 91 8 0 23 -7 33 -17z
m2015 -25 c19 -18 23 -32 23 -80 0 -32 -4 -58 -8 -58 -19 0 -97 95 -94 113 9
48 43 59 79 25z m219 -43 c20 -20 26 -36 26 -71 0 -25 -3 -48 -6 -52 -8 -8
-37 21 -39 39 -2 8 -6 19 -10 25 -4 7 -9 28 -12 48 -7 43 5 47 41 11z m-2136
-39 c0 -11 -12 -33 -27 -48 -21 -22 -36 -28 -69 -28 -24 0 -45 4 -49 10 -6 10
58 81 89 98 25 13 56 -5 56 -32z m-1057 -40 c31 -30 57 -61 57 -69 0 -9 5 -19
10 -22 6 -3 10 -17 10 -30 0 -13 5 -27 10 -30 6 -3 10 -31 10 -61 0 -73 -16
-78 -83 -26 -100 77 -98 74 -91 190 4 56 10 102 13 102 3 0 32 -25 64 -54z
m4061 48 c26 -10 19 -30 -27 -76 -74 -75 -95 -86 -167 -86 -36 1 -68 2 -72 5
-12 6 33 97 62 125 22 22 39 28 86 31 33 2 69 4 81 5 12 1 28 -1 37 -4z
m-1184 -62 c0 -32 -3 -61 -6 -65 -10 -9 -34 4 -34 19 0 7 -9 18 -20 24 -24 13
-25 23 -4 55 10 15 26 25 40 25 23 0 24 -4 24 -58z m206 41 c13 -18 20 -143 8
-143 -4 0 -20 13 -35 30 -24 25 -29 38 -29 80 0 44 2 50 21 50 12 0 28 -8 35
-17z m-2206 -12 c0 -35 -47 -69 -100 -73 -28 -1 -55 -1 -61 1 -17 5 43 61 67
61 12 0 35 7 50 15 38 19 44 19 44 -4z m2449 -63 c47 -42 51 -50 51 -90 0 -25
-3 -47 -6 -51 -3 -3 -23 10 -44 29 -21 19 -45 41 -53 47 -13 10 -23 69 -18
110 2 14 15 5 70 -45z m-2189 -4 c0 -8 -10 -25 -22 -39 -18 -21 -30 -25 -75
-25 -29 0 -53 2 -53 4 0 18 15 36 30 36 22 0 52 28 44 41 -3 5 5 13 18 18 25
10 58 -11 58 -35z m1827 10 c31 -24 33 -28 33 -90 0 -69 -9 -79 -37 -38 -10
14 -26 34 -35 45 -18 19 -23 63 -12 93 8 21 11 20 51 -10z m-165 -28 c2 -6 2
-37 0 -69 l-4 -59 -39 41 c-22 23 -44 41 -49 41 -21 0 -9 39 17 58 21 15 32
18 49 10 13 -6 25 -16 26 -22z m383 2 c32 -29 35 -36 35 -90 0 -32 -4 -58 -8
-58 -4 0 -23 15 -40 33 -28 29 -33 42 -36 90 -2 32 1 57 6 57 5 0 24 -14 43
-32z m-2230 -8 c3 -5 -11 -25 -32 -45 -31 -29 -44 -35 -73 -33 -29 2 -34 7
-32 23 5 28 41 53 82 58 19 2 38 4 42 5 4 1 10 -2 13 -8z m-195 -35 c0 -9 -11
-27 -25 -40 -19 -20 -34 -25 -75 -25 -27 0 -50 4 -50 8 0 16 37 52 53 52 9 0
19 5 22 10 10 17 75 12 75 -5z m456 1 c3 -7 -9 -34 -26 -60 -28 -42 -35 -46
-71 -46 -52 0 -51 21 4 76 42 42 83 56 93 30z m1678 -39 c21 -27 26 -45 26
-90 0 -67 -12 -72 -53 -26 -20 24 -27 42 -27 74 0 24 -3 50 -6 59 -12 31 34
17 60 -17z m195 -3 c29 -24 31 -30 31 -95 0 -38 -3 -69 -7 -68 -5 0 -23 18
-40 41 -28 34 -33 48 -33 94 0 30 4 54 9 54 5 0 23 -12 40 -26z m-2039 3 c0
-8 -12 -30 -27 -51 -27 -36 -29 -36 -78 -31 -27 4 -51 8 -53 10 -8 7 10 45 21
45 7 0 23 9 37 20 29 23 100 28 100 7z m2436 -39 c51 -48 54 -54 54 -100 0
-60 -10 -60 -72 -5 -42 38 -48 49 -52 92 -5 46 -2 65 10 65 3 0 30 -23 60 -52z
m404 48 c0 -14 -14 -36 -22 -36 -12 0 -102 -61 -106 -72 -2 -4 -12 -8 -23 -8
-10 0 -19 -4 -19 -10 0 -5 -7 -10 -16 -10 -19 0 -11 31 17 72 11 14 19 29 19
33 0 20 40 34 93 35 31 0 57 -2 57 -4z m-533 -86 c19 -20 23 -36 23 -87 0 -35
-2 -63 -4 -63 -14 0 -96 85 -104 108 -18 48 -23 94 -10 109 9 11 16 9 42 -14
17 -15 41 -39 53 -53z m-3194 9 c11 -19 22 -36 26 -39 14 -10 73 -102 68 -106
-9 -9 -52 7 -92 35 -39 26 -40 29 -43 90 -3 72 9 78 41 20z m687 32 c0 -4 -12
-22 -28 -40 -22 -25 -37 -33 -80 -38 -28 -3 -52 -4 -52 -1 0 13 52 63 77 74
33 15 83 18 83 5z m1883 -3 c12 -6 47 -37 79 -68 31 -32 71 -68 89 -81 18 -13
73 -63 122 -111 48 -48 91 -88 94 -88 3 0 24 -21 48 -48 23 -26 54 -54 69 -61
38 -21 34 -45 -15 -76 -58 -37 -98 -65 -112 -79 -17 -18 -67 -47 -167 -99 -36
-18 -74 -38 -85 -44 -27 -15 -114 -54 -145 -66 -14 -5 -33 -13 -42 -18 -10 -5
-27 -9 -37 -9 -11 0 -23 -4 -26 -10 -3 -5 -17 -10 -30 -10 -13 0 -26 -4 -29
-9 -3 -5 -20 -11 -38 -14 -55 -9 -92 -18 -113 -27 -11 -5 -40 -12 -65 -15 -25
-3 -76 -10 -115 -16 -147 -23 -526 -12 -680 20 -114 24 -237 56 -270 70 -11 5
-47 20 -80 32 -145 56 -415 206 -454 252 -10 13 -9 21 11 48 24 33 200 221
325 347 40 40 73 76 73 79 0 8 74 72 83 73 7 0 57 -23 102 -47 11 -6 43 -21
70 -33 28 -12 58 -26 67 -31 10 -5 27 -9 37 -9 11 0 23 -4 26 -10 3 -5 19 -10
35 -10 16 0 32 -4 35 -10 3 -5 21 -10 40 -10 19 0 36 -4 39 -8 19 -32 502 -32
522 -1 3 5 23 9 44 9 21 0 42 5 45 10 3 6 19 10 35 10 16 0 32 5 35 10 3 6 15
10 26 10 10 0 27 4 37 9 9 5 58 28 107 51 50 23 98 49 108 57 19 18 57 40 70
42 5 1 18 -4 30 -11z m-2078 -28 c3 -5 -11 -27 -32 -49 -32 -33 -47 -41 -90
-47 -58 -7 -67 2 -34 35 30 30 69 53 104 61 45 11 45 11 52 0z m2350 -36 c29
-30 35 -43 35 -79 0 -24 5 -47 10 -50 16 -10 12 -35 -5 -35 -20 0 -49 27 -67
65 -26 51 -33 135 -12 135 2 0 20 -16 39 -36z m222 -26 c33 -33 53 -61 53 -75
0 -13 -4 -23 -10 -23 -5 0 -10 -13 -10 -30 0 -16 -4 -30 -9 -30 -18 0 -91 90
-91 112 0 13 -3 40 -6 61 -9 52 9 48 73 -15z m-2127 6 c0 -15 -53 -71 -89 -91
-23 -15 -91 -18 -91 -5 0 5 9 17 20 27 11 10 20 23 20 30 0 22 49 54 87 57 45
4 53 1 53 -18z m-160 1 c0 -34 -44 -61 -108 -68 -34 -4 -62 -4 -62 -1 0 12 41
58 63 70 34 19 107 18 107 -1z m-200 -39 c0 -7 -20 -30 -44 -50 -35 -28 -53
-36 -85 -36 -23 0 -41 4 -41 10 0 12 50 58 82 76 32 17 88 18 88 0z m2725 -18
c19 -18 40 -38 47 -44 54 -47 59 -79 16 -103 -25 -14 -28 -13 -64 19 -25 21
-41 45 -45 66 -6 32 -1 94 7 94 3 0 20 -15 39 -32z m157 15 c32 -29 17 -83
-23 -83 -25 0 -30 13 -23 59 7 45 17 50 46 24z m-3082 -36 c0 -7 -8 -19 -17
-28 -10 -8 -39 -39 -65 -67 -33 -37 -54 -52 -72 -52 -19 0 -26 5 -26 20 0 16
7 20 31 20 20 0 29 4 26 13 -2 6 -10 11 -16 9 -20 -4 -23 25 -6 52 12 18 26
26 46 26 15 0 31 5 34 10 9 15 65 12 65 -3z m2586 -9 c47 -37 53 -50 54 -115
0 -70 -9 -78 -47 -37 -29 32 -51 82 -53 126 -3 58 1 60 46 26z m260 -70 c73
-69 87 -89 78 -112 -9 -23 -24 -20 -24 5 0 28 -34 21 -38 -9 -5 -30 -10 -28
-60 17 -33 31 -43 48 -46 78 -5 45 3 83 15 83 5 0 38 -28 75 -62z m-2546 45
c0 -3 -17 -23 -38 -44 -29 -28 -50 -39 -86 -44 -68 -11 -77 8 -29 57 34 35 41
38 95 38 32 0 58 -3 58 -7z m125 -23 c3 -5 -12 -28 -34 -50 -33 -33 -46 -40
-79 -40 -21 0 -42 3 -46 7 -10 11 56 73 78 73 12 0 28 5 36 10 19 13 37 13 45
0z m-345 -27 c0 -21 -80 -98 -110 -106 -27 -7 -60 8 -60 27 0 18 49 68 80 83
39 18 90 16 90 -4z m2682 -94 l72 -71 -19 -35 c-16 -29 -23 -33 -44 -28 -34 9
-60 33 -76 71 -24 59 -30 134 -9 134 2 0 36 -32 76 -71z m-2582 18 c0 -7 -15
-30 -34 -50 -32 -35 -37 -37 -95 -37 -33 0 -61 2 -61 5 0 3 20 26 44 50 40 42
48 45 95 45 35 0 51 -4 51 -13z m120 -36 c0 -10 -11 -26 -25 -35 -27 -18 -105
-22 -105 -6 0 16 38 44 68 51 50 12 62 10 62 -10z m-255 -81 c12 -19 -6 -50
-29 -50 -47 0 -63 46 -18 53 15 2 30 5 34 6 4 0 10 -4 13 -9z m160 -10 c4 -6
-7 -24 -24 -40 -30 -31 -71 -39 -101 -20 -12 7 -9 13 15 32 25 19 43 26 97 37
4 0 10 -4 13 -9z m2455 -160 c0 -11 -3 -20 -8 -20 -4 0 -13 -15 -21 -32 -29
-67 -107 -168 -131 -168 -5 0 -10 -9 -10 -20 0 -11 -33 -53 -73 -95 l-74 -76
-44 7 c-24 3 -58 9 -75 14 -17 4 -47 6 -67 5 -39 -4 -53 18 -19 29 10 3 34 21
53 39 19 18 43 36 52 40 9 3 17 12 17 19 0 26 41 39 118 38 98 -2 100 -2 82
10 -8 5 -39 10 -67 10 -34 0 -53 4 -53 12 0 16 31 48 47 48 7 0 13 5 13 10 0
6 9 10 20 10 11 0 20 4 20 9 0 5 8 11 18 14 23 8 76 40 80 50 2 4 9 7 16 7 6
0 27 13 46 30 41 34 60 38 60 10z m-2440 -30 c3 -3 17 -11 32 -19 15 -8 33
-27 40 -43 14 -29 24 -35 30 -17 2 7 21 3 53 -12 77 -35 105 -57 105 -84 0
-13 5 -27 10 -30 6 -3 10 -24 10 -46 0 -21 5 -39 10 -39 17 0 12 -76 -6 -91
-14 -11 -25 -4 -86 59 -48 49 -68 77 -64 88 7 17 -10 54 -24 54 -6 0 -10 -7
-10 -15 0 -21 -16 -19 -24 3 -3 9 -21 37 -40 62 -19 25 -35 48 -35 53 -1 4
-12 25 -26 47 -31 50 -32 64 -2 48 12 -7 24 -15 27 -18z m2020 -198 c0 -13
-83 -88 -145 -129 -68 -45 -265 -143 -288 -143 -9 0 -19 -4 -22 -10 -3 -5 -19
-10 -35 -10 -16 0 -31 -4 -34 -9 -6 -10 -46 -17 -171 -31 -44 -5 -96 -12 -116
-15 -23 -4 -39 -3 -43 4 -9 14 -116 15 -116 1 0 -10 16 -14 85 -25 38 -5 70
-18 175 -68 60 -29 94 -61 87 -81 -5 -13 -26 -16 -130 -16 l-123 0 -80 80
c-85 86 -95 100 -70 100 38 0 11 20 -41 30 -32 7 -67 16 -78 20 -11 4 -40 13
-65 21 -25 7 -69 25 -98 41 -29 15 -58 28 -64 28 -6 0 -27 12 -47 28 -20 15
-55 37 -79 49 -47 24 -142 100 -142 114 0 12 37 11 45 -1 3 -5 17 -10 30 -10
13 0 27 -4 30 -10 3 -5 17 -10 30 -10 13 0 26 -4 29 -9 3 -5 20 -11 38 -14 55
-9 92 -18 113 -27 21 -9 48 -14 175 -31 111 -15 510 -16 605 -1 44 7 98 15
120 18 22 3 44 10 50 15 5 5 24 9 41 9 18 0 36 5 39 10 3 6 19 10 36 10 16 0
37 4 47 9 9 5 38 15 65 23 26 7 47 16 47 20 0 4 11 8 24 8 14 0 28 5 31 10 7
12 45 14 45 2z m-1671 -39 c10 -10 48 -45 85 -78 36 -32 66 -65 66 -72 0 -9 8
-11 23 -8 24 6 114 -33 136 -59 7 -9 18 -16 23 -16 15 0 38 -27 38 -44 0 -9 5
-16 10 -16 6 0 10 -7 10 -15 0 -8 5 -15 10 -15 6 0 10 -11 10 -24 0 -14 5 -28
10 -31 10 -6 15 -55 5 -55 -8 0 -119 41 -150 56 -48 22 -63 38 -68 69 -11 66
-41 94 -35 33 2 -24 -1 -34 -14 -36 -17 -3 -152 82 -175 109 -11 14 -24 204
-15 214 8 8 10 6 31 -12z m1715 -163 c12 -12 -51 -75 -97 -99 -15 -8 -27 -18
-27 -23 0 -15 -69 -8 -102 11 -18 10 -55 21 -80 25 -26 4 -50 12 -54 17 -7 12
24 38 44 39 8 0 26 9 41 19 15 11 47 22 72 24 65 7 192 -2 203 -13z m-1269
-100 c3 -5 15 -10 25 -10 21 0 133 -58 138 -72 2 -4 9 -8 16 -8 22 0 119 -107
113 -124 -7 -19 -26 -20 -99 -5 -172 34 -173 34 -184 82 -3 18 -17 53 -30 79
-13 26 -24 52 -24 58 0 13 37 13 45 0z m963 -6 c23 -3 42 -10 42 -15 0 -5 7
-9 16 -9 15 0 50 -28 43 -34 -14 -13 -136 -66 -153 -66 -11 0 -30 10 -43 22
-17 16 -23 18 -23 7 0 -8 6 -21 12 -27 15 -15 -1 -29 -42 -38 -14 -3 -33 -9
-42 -15 -10 -5 -27 -9 -39 -9 -11 0 -29 -5 -40 -10 -21 -12 -46 -2 -93 37 -15
13 -43 30 -61 37 -18 8 -36 19 -39 25 -4 6 -16 11 -27 11 -24 0 -25 15 -1 25
9 4 67 10 129 13 98 4 112 7 116 23 4 13 14 19 34 19 15 0 35 5 43 10 14 9 75
7 168 -6z"/>
<path d="M2680 4620 c0 -13 7 -20 20 -20 19 0 20 -7 20 -150 0 -144 1 -150 20
-150 11 0 23 6 25 13 3 6 6 73 7 147 3 133 3 135 26 138 15 2 22 9 20 20 -3
14 -17 18 -71 20 -62 3 -67 1 -67 -18z"/>
<path d="M2912 4618 c-7 -7 -12 -27 -12 -46 0 -18 -4 -52 -10 -75 -16 -73 -19
-195 -4 -201 27 -10 41 22 48 114 4 50 10 101 15 113 11 30 2 107 -13 107 -7
0 -17 -5 -24 -12z"/>
<path d="M2507 4613 c-4 -3 -7 -80 -7 -170 0 -156 1 -163 20 -163 17 0 20 7
20 40 0 33 3 40 20 40 14 0 20 -7 20 -24 0 -29 24 -51 46 -42 19 7 18 12 -27
181 -17 66 -36 126 -42 133 -10 13 -39 16 -50 5z"/>
<path d="M3064 4583 c-3 -10 -10 -26 -15 -35 -5 -10 -9 -29 -9 -42 0 -14 -4
-28 -10 -31 -5 -3 -10 -21 -10 -40 0 -19 -4 -37 -10 -40 -5 -3 -10 -21 -10
-39 0 -17 -5 -37 -11 -43 -16 -16 -2 -33 27 -33 21 0 24 5 24 35 0 19 5 35 10
35 6 0 10 -20 10 -44 0 -31 5 -46 16 -50 17 -6 49 12 39 22 -3 3 2 16 10 29 9
13 13 28 10 33 -3 5 1 26 8 47 23 64 35 106 42 151 6 40 6 42 -19 42 -16 0
-26 -6 -26 -14 0 -7 -6 -26 -14 -41 l-15 -28 -3 49 c-2 37 -7 50 -21 52 -10 2
-19 -4 -23 -15z"/>
<path d="M2255 4560 c-15 -17 -17 -31 -12 -96 3 -48 11 -82 21 -93 9 -10 16
-25 16 -34 0 -18 16 -51 39 -79 22 -27 75 -23 95 7 9 13 16 30 16 37 0 30 -74
238 -91 257 -25 26 -61 27 -84 1z m61 -57 c3 -10 10 -26 15 -35 5 -10 9 -28 9
-41 0 -13 4 -27 9 -32 5 -6 12 -31 15 -57 6 -40 5 -48 -8 -48 -10 0 -16 9 -16
25 0 13 -5 37 -11 52 -6 15 -15 37 -19 48 -5 11 -11 32 -14 47 -3 14 -9 33
-12 42 -4 11 -1 16 10 16 9 0 19 -8 22 -17z"/>
<path d="M3284 4508 c-25 -30 -44 -65 -44 -81 0 -7 -9 -32 -20 -55 -11 -22
-20 -46 -20 -52 0 -5 -5 -19 -12 -29 -16 -26 7 -79 38 -87 46 -12 74 4 94 51
11 25 21 57 22 72 3 22 -2 28 -29 35 -33 9 -46 39 -23 53 6 3 10 14 10 25 0
18 28 36 39 25 3 -3 0 -15 -7 -25 -21 -34 -15 -60 13 -60 14 0 25 5 25 11 0 6
7 26 16 44 19 40 7 71 -32 85 -37 15 -48 12 -70 -12z m-4 -206 c0 -27 -15 -52
-32 -52 -11 0 -10 38 2 61 15 28 30 23 30 -9z"/>
<path d="M2019 4461 l-23 -18 70 -141 c75 -154 79 -158 142 -126 25 12 32 22
32 43 0 34 -44 117 -66 125 -8 3 -13 10 -9 16 9 14 -32 98 -54 110 -30 15 -66
12 -92 -9z m79 -77 l-3 -29 -13 23 c-8 13 -11 31 -7 39 9 26 27 0 23 -33z m68
-101 c15 -20 19 -73 5 -73 -5 0 -14 14 -20 31 -19 56 -11 77 15 42z"/>
<path d="M4530 3183 c-19 -2 -39 -9 -44 -14 -6 -5 -27 -9 -48 -9 -21 0 -38 -4
-38 -10 0 -5 -13 -10 -30 -10 -16 0 -30 -4 -30 -9 0 -5 -9 -11 -20 -14 -26 -7
-28 -68 -3 -88 22 -19 111 -16 130 4 24 24 7 37 -41 31 -69 -10 -70 25 -1 40
17 4 48 12 70 17 63 17 115 22 115 12 0 -16 -24 -33 -47 -33 -16 0 -23 -6 -23
-20 0 -24 34 -27 75 -6 33 17 45 33 45 62 0 38 -41 55 -110 47z"/>
<path d="M4520 2940 c-52 -4 -114 -11 -137 -15 l-43 -8 0 -48 c0 -42 3 -49 20
-49 15 0 20 7 20 28 0 25 6 31 38 40 20 6 81 13 134 14 99 3 141 18 108 38 -8
5 -22 9 -30 8 -8 -1 -58 -5 -110 -8z"/>
<path d="M4357 2742 c-19 -21 -22 -54 -7 -83 10 -18 23 -19 176 -19 152 0 165
1 162 18 -3 15 -19 17 -146 20 -134 2 -142 4 -142 22 0 19 7 20 146 20 133 0
145 1 142 18 -3 15 -20 17 -159 20 -141 2 -157 1 -172 -16z"/>
<path d="M4326 2545 c-19 -51 4 -105 47 -105 14 0 29 -5 33 -11 4 -7 22 -9 47
-6 25 3 54 0 75 -9 73 -30 123 -12 134 49 4 21 1 30 -11 34 -9 3 -25 9 -36 13
-11 5 -40 11 -65 14 -25 2 -67 9 -95 15 -108 24 -122 24 -129 6z m99 -35 c4
-6 10 -8 15 -5 13 8 30 -19 21 -34 -6 -9 -18 -11 -39 -6 -34 7 -57 29 -47 45
8 13 42 13 50 0z m183 -52 c3 -14 -4 -18 -30 -18 -33 0 -58 14 -58 33 0 4 19
7 42 5 31 -2 44 -8 46 -20z"/>
<path d="M1096 3625 c-3 -9 -6 -18 -6 -19 0 -8 39 -46 47 -46 6 0 40 -22 77
-50 37 -27 70 -50 74 -50 4 0 18 -9 32 -20 28 -22 60 -26 60 -8 0 7 -12 25
-27 40 -21 22 -24 31 -15 40 9 9 17 9 36 -2 28 -15 56 -8 56 14 0 20 -24 32
-79 40 -24 4 -53 13 -64 21 -12 8 -29 15 -38 15 -9 0 -30 7 -47 16 -51 25 -98
29 -106 9z m179 -75 c12 -19 -5 -28 -30 -17 -14 7 -25 15 -25 20 0 11 48 9 55
-3z"/>
<path d="M1023 3448 c-18 -9 -23 -20 -23 -48 0 -32 4 -39 41 -58 22 -12 46
-22 53 -22 7 0 31 -9 54 -20 22 -11 48 -20 56 -20 8 0 18 -4 21 -10 10 -16 68
-11 93 8 38 29 24 79 -28 106 -72 36 -130 31 -130 -10 0 -29 -7 -29 -60 -7
-52 23 -46 38 13 34 59 -3 65 21 11 44 -42 17 -70 18 -101 3z m240 -105 c9 -3
17 -12 17 -20 0 -12 -8 -14 -37 -8 -45 8 -47 10 -39 31 4 11 12 14 24 9 9 -4
25 -10 35 -12z"/>
<path d="M955 3239 c-9 -13 -9 -13 48 -30 59 -19 57 -32 -5 -33 -63 -1 -81
-19 -40 -40 17 -9 44 -16 61 -16 16 0 33 -4 36 -10 3 -5 16 -10 29 -10 12 0
26 -4 32 -9 5 -5 27 -11 49 -14 22 -3 53 -9 68 -13 25 -6 28 -4 25 11 -2 12
-20 23 -55 33 -29 8 -53 18 -53 23 0 4 28 9 62 11 49 2 64 7 66 19 2 11 -6 19
-25 23 -15 4 -44 11 -63 16 -92 23 -206 50 -217 50 -6 0 -15 -5 -18 -11z"/>
<path d="M900 3020 c0 -11 10 -20 28 -23 15 -4 50 -11 77 -17 28 -5 78 -13
113 -16 53 -6 62 -10 62 -26 0 -22 -16 -22 -165 2 -107 18 -129 17 -133 -1 -2
-12 8 -18 35 -24 98 -19 153 -27 216 -32 56 -4 72 -1 88 13 41 37 16 89 -49
99 -20 4 -50 11 -66 16 -16 5 -48 9 -71 9 -23 0 -45 3 -49 7 -4 4 -25 8 -46 9
-33 2 -40 -1 -40 -16z"/>
<path d="M1145 2809 c-11 -4 -72 -8 -135 -9 -79 0 -121 -5 -132 -14 -40 -30
-10 -60 67 -70 22 -2 63 -10 90 -16 82 -19 178 -24 173 -9 -2 7 -17 17 -34 22
-62 20 -68 47 -10 47 39 0 64 22 44 37 -22 17 -42 21 -63 12z m-85 -59 c0 -5
-13 -10 -30 -10 -16 0 -30 5 -30 10 0 6 14 10 30 10 17 0 30 -4 30 -10z"/>
<path d="M869 2584 c-10 -12 -10 -20 -1 -35 7 -10 12 -30 12 -43 0 -37 20 -43
44 -14 18 22 32 27 96 32 159 14 195 20 195 36 0 16 -67 18 -216 5 -72 -7 -76
-6 -82 14 -6 25 -29 27 -48 5z"/>
<path d="M1213 2443 c-7 -2 -13 -20 -13 -38 0 -36 -13 -45 -60 -45 -19 0 -33
7 -40 20 -16 31 -40 25 -40 -10 0 -51 -74 -69 -95 -22 -5 12 -18 22 -27 22
-14 0 -18 -8 -18 -39 0 -65 23 -69 155 -31 22 7 57 14 78 17 20 3 40 9 43 14
3 5 15 9 28 9 32 0 46 18 39 54 -9 48 -22 61 -50 49z"/>
<path d="M1211 2248 c-31 -22 -56 -31 -86 -32 -24 0 -47 -4 -51 -8 -4 -5 -14
-8 -21 -8 -21 0 -73 -42 -73 -59 0 -8 5 -30 12 -48 9 -24 18 -33 34 -33 13 0
26 5 29 10 3 6 15 10 26 10 10 0 27 4 37 9 30 15 66 28 112 41 75 21 100 32
100 46 0 7 -10 16 -21 19 -19 6 -39 1 -92 -27 -11 -5 -21 -7 -23 -5 -8 8 8 37
20 37 7 0 22 9 34 20 12 11 26 20 32 20 5 0 10 9 10 20 0 29 -27 25 -79 -12z
m-100 -111 c-14 -17 -69 -28 -77 -15 -9 14 15 37 44 40 34 5 49 -7 33 -25z"/>
<path d="M1318 2058 c-2 -36 -8 -45 -31 -56 -25 -12 -31 -12 -46 2 -10 9 -26
16 -36 16 -14 0 -16 -6 -12 -29 7 -34 -6 -48 -50 -57 -20 -4 -33 -1 -42 10 -8
9 -20 16 -27 16 -22 0 -16 -48 9 -76 l23 -25 85 43 c46 23 86 46 87 50 2 5 10
8 18 8 13 0 81 35 97 50 14 13 -31 90 -53 90 -15 0 -19 -8 -22 -42z"/>
<path d="M1382 1910 c-18 -16 -36 -30 -40 -30 -5 0 -17 -10 -28 -21 -10 -12
-39 -35 -64 -52 -58 -40 -70 -52 -70 -71 0 -23 16 -20 65 14 39 27 75 39 75
25 0 -12 -45 -55 -58 -55 -17 0 -41 -28 -42 -47 0 -24 45 -13 77 17 18 17 36
30 41 30 4 0 17 8 28 18 10 10 47 37 82 61 35 23 62 47 59 54 -6 18 -37 33
-45 22 -4 -6 -23 -22 -42 -35 -19 -13 -38 -29 -42 -34 -5 -7 -11 -7 -20 2 -10
10 -6 18 22 42 19 17 39 30 43 30 16 0 39 31 33 45 -9 24 -41 17 -74 -15z"/>
<path d="M2230 3751 c0 -26 22 -42 40 -30 11 8 12 12 3 16 -7 2 -13 11 -13 19
0 8 -7 14 -15 14 -8 0 -15 -8 -15 -19z"/>
<path d="M3280 1261 c-37 -9 -68 -31 -52 -37 6 -3 12 -19 12 -35 0 -16 5 -29
10 -29 6 0 10 -9 10 -20 0 -11 4 -28 9 -38 5 -9 14 -29 20 -44 6 -16 15 -38
20 -50 6 -13 11 -32 13 -43 6 -38 108 -28 108 11 0 12 -7 14 -28 9 -30 -6 -60
15 -48 34 4 5 2 12 -4 16 -16 10 -12 53 7 63 23 13 9 42 -21 42 -14 0 -28 5
-31 10 -14 22 -13 69 1 80 15 13 20 41 7 39 -5 -1 -19 -4 -33 -8z"/>
<path d="M2312 1248 c-7 -7 -12 -22 -12 -35 0 -13 -4 -31 -9 -41 -5 -9 -15
-37 -21 -62 -7 -25 -16 -54 -20 -65 -5 -11 -11 -39 -13 -62 -4 -38 -3 -43 14
-43 11 0 22 8 25 18 7 20 23 61 34 82 4 8 19 16 33 18 15 2 38 17 52 33 20 25
25 41 25 85 0 52 -1 54 -36 69 -44 18 -56 19 -72 3z m58 -57 c0 -31 -15 -71
-26 -71 -16 0 -17 5 -8 49 6 27 34 46 34 22z"/>
<path d="M2496 1188 c-9 -17 -16 -50 -16 -74 0 -24 -4 -46 -10 -49 -5 -3 -10
-28 -10 -55 0 -27 -5 -52 -10 -55 -6 -4 -9 -21 -7 -38 3 -30 7 -32 52 -39 27
-4 52 -5 57 -2 12 8 -1 24 -28 34 -43 17 -26 106 22 112 36 4 42 25 11 37 -23
9 -25 15 -22 53 3 40 5 43 36 48 46 7 49 32 6 48 -51 18 -64 15 -81 -20z"/>
<path d="M3122 1161 c5 -69 -6 -80 -22 -23 -5 22 -19 47 -30 57 -18 16 -20 16
-26 2 -7 -19 -1 -86 16 -167 6 -30 14 -75 18 -100 5 -31 12 -46 25 -48 15 -3
17 5 17 55 l0 58 20 -25 c11 -14 20 -35 20 -47 0 -18 6 -23 25 -23 30 0 30 -3
6 113 -11 50 -23 117 -28 147 -6 42 -12 56 -27 58 -17 4 -18 -2 -14 -57z"/>
<path d="M2868 1183 c-28 -14 -28 -15 -28 -111 1 -118 18 -193 49 -208 30 -16
69 -6 77 20 9 26 7 233 -2 264 -5 18 -53 55 -66 51 -2 -1 -15 -8 -30 -16z m52
-174 c0 -66 -4 -109 -10 -109 -5 0 -10 24 -11 53 0 28 -4 79 -8 112 -9 67 -6
81 15 64 10 -9 14 -39 14 -120z"/>
<path d="M2660 1177 c0 -9 10 -23 21 -31 19 -13 21 -20 14 -63 -4 -26 -8 -88
-9 -138 -1 -77 1 -90 16 -93 25 -5 38 55 38 175 0 101 0 102 27 115 46 22 40
38 -14 38 -26 0 -58 3 -70 6 -17 5 -23 2 -23 -9z"/>
<path d="M3120 450 c0 -5 11 -10 25 -10 14 0 25 5 25 10 0 6 -11 10 -25 10
-14 0 -25 -4 -25 -10z"/>
<path d="M3200 430 c0 -5 5 -10 11 -10 5 0 7 5 4 10 -3 6 -8 10 -11 10 -2 0
-4 -4 -4 -10z"/>
</g>
</svg>
